<svg width="41" height="28" viewBox="0 0 41 28" fill="none" xmlns="http://www.w3.org/2000/svg">
<path d="M4.03749 27.3599C2.92718 27.3599 1.97703 27.0253 1.18702 26.3561C0.39702 25.687 0.00134583 24.8815 0 23.9399V3.41999C0 2.47949 0.395674 1.67465 1.18702 1.00548C1.97837 0.336298 2.92853 0.00114 4.03749 0H36.3374C37.4477 0 38.3986 0.335158 39.1899 1.00548C39.9813 1.67579 40.3763 2.48063 40.3749 3.41999V23.9399C40.3749 24.8804 39.9799 25.6858 39.1899 26.3561C38.3999 27.0264 37.4491 27.361 36.3374 27.3599H4.03749ZM20.1875 15.3899L36.3374 6.83997V3.41999L20.1875 11.97L4.03749 3.41999V6.83997L20.1875 15.3899Z" fill="#AFAFAF"/>
</svg>
