<svg width="1517" height="1503" viewBox="0 0 1517 1503" fill="none" xmlns="http://www.w3.org/2000/svg">
<path d="M357 56L588 323.5L472.5 578.5L837.5 791.5L752.5 1126L1141.5 1448" stroke="white" stroke-width="12"/>
<line x1="626" y1="318" x2="755.035" y2="318" stroke="white" stroke-width="2" stroke-dasharray="8 8"/>
<circle cx="760.035" cy="318" r="12" transform="rotate(90 760.035 318)" fill="#FBACAB"/>
<circle cx="585" cy="318" r="74" fill="#FBACAB"/>
<circle cx="585" cy="318" r="62.9" fill="black"/>
<path d="M547.872 327.24C546.8 327.24 545.808 327.032 544.896 326.616C544 326.2 543.264 325.6 542.688 324.816L544.464 322.68C544.928 323.32 545.432 323.8 545.976 324.12C546.536 324.44 547.144 324.6 547.8 324.6C549.544 324.6 550.416 323.568 550.416 321.504V312.816H544.44V310.2H553.536V321.336C553.536 323.32 553.048 324.8 552.072 325.776C551.112 326.752 549.712 327.24 547.872 327.24ZM563.048 327.168C561.96 327.168 561 326.968 560.168 326.568C559.336 326.152 558.688 325.528 558.224 324.696C557.76 323.848 557.528 322.784 557.528 321.504V314.184H560.528V321.096C560.528 322.248 560.784 323.112 561.296 323.688C561.824 324.248 562.568 324.528 563.528 324.528C564.232 324.528 564.84 324.384 565.352 324.096C565.88 323.808 566.288 323.376 566.576 322.8C566.88 322.224 567.032 321.512 567.032 320.664V314.184H570.032V327H567.176V323.544L567.68 324.6C567.248 325.432 566.616 326.072 565.784 326.52C564.952 326.952 564.04 327.168 563.048 327.168ZM581.232 314.04C582.256 314.04 583.168 314.24 583.968 314.64C584.784 315.04 585.424 315.656 585.888 316.488C586.352 317.304 586.584 318.36 586.584 319.656V327H583.584V320.04C583.584 318.904 583.312 318.056 582.768 317.496C582.24 316.936 581.496 316.656 580.536 316.656C579.832 316.656 579.208 316.8 578.664 317.088C578.12 317.376 577.696 317.808 577.392 318.384C577.104 318.944 576.96 319.656 576.96 320.52V327H573.96V314.184H576.816V317.64L576.312 316.584C576.76 315.768 577.408 315.144 578.256 314.712C579.12 314.264 580.112 314.04 581.232 314.04ZM596.437 327.168C595.013 327.168 593.765 326.888 592.693 326.328C591.637 325.752 590.813 324.968 590.221 323.976C589.645 322.984 589.357 321.856 589.357 320.592C589.357 319.312 589.637 318.184 590.197 317.208C590.773 316.216 591.557 315.44 592.549 314.88C593.557 314.32 594.701 314.04 595.981 314.04C597.229 314.04 598.341 314.312 599.317 314.856C600.293 315.4 601.061 316.168 601.621 317.16C602.181 318.152 602.461 319.32 602.461 320.664C602.461 320.792 602.453 320.936 602.437 321.096C602.437 321.256 602.429 321.408 602.413 321.552H591.733V319.56H600.829L599.653 320.184C599.669 319.448 599.517 318.8 599.197 318.24C598.877 317.68 598.437 317.24 597.877 316.92C597.333 316.6 596.701 316.44 595.981 316.44C595.245 316.44 594.597 316.6 594.037 316.92C593.493 317.24 593.061 317.688 592.741 318.264C592.437 318.824 592.285 319.488 592.285 320.256V320.736C592.285 321.504 592.461 322.184 592.813 322.776C593.165 323.368 593.661 323.824 594.301 324.144C594.941 324.464 595.677 324.624 596.509 324.624C597.229 324.624 597.877 324.512 598.453 324.288C599.029 324.064 599.541 323.712 599.989 323.232L601.597 325.08C601.021 325.752 600.293 326.272 599.413 326.64C598.549 326.992 597.557 327.168 596.437 327.168ZM616.728 309.96C618.264 309.96 619.568 310.288 620.64 310.944C621.728 311.584 622.56 312.52 623.136 313.752C623.712 314.984 624 316.504 624 318.312C624 320.232 623.648 321.856 622.944 323.184C622.256 324.512 621.296 325.52 620.064 326.208C618.832 326.896 617.4 327.24 615.768 327.24C614.92 327.24 614.112 327.152 613.344 326.976C612.576 326.8 611.912 326.528 611.352 326.16L612.504 323.808C612.968 324.112 613.472 324.328 614.016 324.456C614.56 324.568 615.12 324.624 615.696 324.624C617.28 324.624 618.536 324.136 619.464 323.16C620.392 322.184 620.856 320.744 620.856 318.84C620.856 318.536 620.848 318.184 620.832 317.784C620.816 317.368 620.76 316.952 620.664 316.536L621.624 317.592C621.352 318.248 620.96 318.8 620.448 319.248C619.936 319.68 619.336 320.008 618.648 320.232C617.96 320.456 617.2 320.568 616.368 320.568C615.28 320.568 614.296 320.36 613.416 319.944C612.552 319.512 611.864 318.912 611.352 318.144C610.84 317.36 610.584 316.448 610.584 315.408C610.584 314.288 610.856 313.328 611.4 312.528C611.944 311.712 612.68 311.08 613.608 310.632C614.552 310.184 615.592 309.96 616.728 309.96ZM616.896 312.408C616.256 312.408 615.688 312.528 615.192 312.768C614.696 312.992 614.304 313.32 614.016 313.752C613.744 314.168 613.608 314.672 613.608 315.264C613.608 316.144 613.912 316.84 614.52 317.352C615.128 317.864 615.944 318.12 616.968 318.12C617.64 318.12 618.232 318 618.744 317.76C619.256 317.504 619.656 317.16 619.944 316.728C620.232 316.28 620.376 315.784 620.376 315.24C620.376 314.712 620.24 314.24 619.968 313.824C619.696 313.392 619.304 313.048 618.792 312.792C618.28 312.536 617.648 312.408 616.896 312.408Z" fill="#FBACAB"/>
<path d="M813.687 307.44H815.935V329H813.687V307.44ZM800.196 329H797.917V307.44H800.196V329ZM813.902 319.052H799.95V317.05H813.902V319.052ZM831.843 329.154C830.159 329.154 828.681 328.805 827.408 328.107C826.134 327.388 825.139 326.413 824.42 325.181C823.701 323.928 823.342 322.501 823.342 320.9C823.342 319.298 823.681 317.881 824.358 316.649C825.056 315.417 826.001 314.452 827.192 313.754C828.403 313.035 829.759 312.676 831.258 312.676C832.777 312.676 834.122 313.025 835.292 313.723C836.483 314.401 837.418 315.366 838.095 316.618C838.773 317.85 839.112 319.277 839.112 320.9C839.112 321.002 839.101 321.115 839.081 321.238C839.081 321.341 839.081 321.454 839.081 321.577H825.005V319.945H837.91L837.048 320.592C837.048 319.421 836.791 318.384 836.278 317.481C835.785 316.557 835.108 315.838 834.245 315.325C833.383 314.811 832.387 314.555 831.258 314.555C830.149 314.555 829.153 314.811 828.27 315.325C827.387 315.838 826.699 316.557 826.206 317.481C825.714 318.405 825.467 319.462 825.467 320.653V320.992C825.467 322.224 825.734 323.312 826.268 324.257C826.822 325.181 827.582 325.91 828.547 326.444C829.533 326.957 830.652 327.214 831.904 327.214C832.89 327.214 833.804 327.039 834.646 326.69C835.508 326.341 836.247 325.807 836.863 325.088L838.095 326.505C837.376 327.368 836.473 328.025 835.385 328.476C834.317 328.928 833.136 329.154 831.843 329.154ZM855.709 329V325.427L855.616 324.842V318.867C855.616 317.491 855.226 316.434 854.446 315.694C853.686 314.955 852.547 314.586 851.027 314.586C849.98 314.586 848.984 314.76 848.039 315.109C847.095 315.458 846.294 315.92 845.637 316.495L844.651 314.863C845.473 314.165 846.458 313.631 847.608 313.261C848.758 312.871 849.97 312.676 851.243 312.676C853.337 312.676 854.949 313.2 856.078 314.247C857.228 315.273 857.803 316.844 857.803 318.959V329H855.709ZM850.134 329.154C848.922 329.154 847.865 328.959 846.961 328.569C846.079 328.158 845.401 327.604 844.929 326.906C844.456 326.187 844.22 325.366 844.22 324.442C844.22 323.6 844.415 322.84 844.805 322.162C845.216 321.464 845.873 320.91 846.777 320.499C847.701 320.068 848.933 319.852 850.473 319.852H856.047V321.485H850.534C848.974 321.485 847.885 321.762 847.269 322.316C846.674 322.871 846.376 323.559 846.376 324.38C846.376 325.304 846.736 326.043 847.454 326.598C848.173 327.152 849.179 327.429 850.473 327.429C851.705 327.429 852.762 327.152 853.645 326.598C854.549 326.023 855.206 325.201 855.616 324.134L856.109 325.643C855.698 326.711 854.98 327.563 853.953 328.199C852.947 328.836 851.674 329.154 850.134 329.154ZM872.644 329.154C871.104 329.154 869.718 328.805 868.486 328.107C867.274 327.409 866.32 326.444 865.621 325.212C864.923 323.959 864.574 322.522 864.574 320.9C864.574 319.257 864.923 317.82 865.621 316.588C866.32 315.356 867.274 314.401 868.486 313.723C869.718 313.025 871.104 312.676 872.644 312.676C874.061 312.676 875.323 312.994 876.432 313.631C877.562 314.267 878.455 315.202 879.112 316.434C879.789 317.645 880.128 319.134 880.128 320.9C880.128 322.645 879.8 324.134 879.143 325.366C878.486 326.598 877.592 327.542 876.463 328.199C875.354 328.836 874.081 329.154 872.644 329.154ZM872.798 327.214C873.948 327.214 874.974 326.957 875.878 326.444C876.802 325.91 877.52 325.171 878.034 324.226C878.568 323.261 878.835 322.152 878.835 320.9C878.835 319.627 878.568 318.518 878.034 317.573C877.52 316.629 876.802 315.9 875.878 315.386C874.974 314.853 873.948 314.586 872.798 314.586C871.668 314.586 870.652 314.853 869.749 315.386C868.845 315.9 868.126 316.629 867.593 317.573C867.059 318.518 866.792 319.627 866.792 320.9C866.792 322.152 867.059 323.261 867.593 324.226C868.126 325.171 868.845 325.91 869.749 326.444C870.652 326.957 871.668 327.214 872.798 327.214ZM878.896 329V324.134L879.112 320.869L878.804 317.604V306.146H880.991V329H878.896ZM889.545 329V312.83H891.732V329H889.545ZM890.654 309.257C890.202 309.257 889.822 309.103 889.514 308.795C889.206 308.487 889.052 308.118 889.052 307.686C889.052 307.255 889.206 306.896 889.514 306.608C889.822 306.3 890.202 306.146 890.654 306.146C891.105 306.146 891.485 306.29 891.793 306.578C892.101 306.865 892.255 307.224 892.255 307.656C892.255 308.107 892.101 308.487 891.793 308.795C891.506 309.103 891.126 309.257 890.654 309.257ZM908.535 312.676C909.849 312.676 910.999 312.933 911.984 313.446C912.99 313.939 913.771 314.699 914.325 315.725C914.9 316.752 915.188 318.045 915.188 319.606V329H913.001V319.822C913.001 318.117 912.57 316.834 911.707 315.972C910.865 315.089 909.674 314.647 908.134 314.647C906.984 314.647 905.978 314.883 905.116 315.356C904.274 315.807 903.617 316.475 903.145 317.358C902.693 318.22 902.467 319.267 902.467 320.499V329H900.28V312.83H902.375V317.265L902.036 316.434C902.549 315.263 903.371 314.349 904.5 313.692C905.629 313.015 906.974 312.676 908.535 312.676ZM930.458 335.129C928.979 335.129 927.562 334.914 926.207 334.482C924.852 334.051 923.753 333.435 922.912 332.634L924.02 330.971C924.78 331.649 925.714 332.183 926.823 332.573C927.953 332.983 929.143 333.189 930.396 333.189C932.449 333.189 933.959 332.706 934.924 331.741C935.889 330.797 936.371 329.318 936.371 327.306V323.271L936.679 320.499L936.464 317.727V312.83H938.558V327.029C938.558 329.821 937.87 331.864 936.494 333.158C935.139 334.472 933.127 335.129 930.458 335.129ZM930.057 328.384C928.517 328.384 927.131 328.055 925.899 327.398C924.667 326.721 923.692 325.787 922.973 324.596C922.275 323.405 921.926 322.039 921.926 320.499C921.926 318.959 922.275 317.604 922.973 316.434C923.692 315.243 924.667 314.319 925.899 313.662C927.131 313.005 928.517 312.676 930.057 312.676C931.495 312.676 932.788 312.974 933.938 313.569C935.088 314.165 936.002 315.048 936.679 316.218C937.357 317.388 937.696 318.815 937.696 320.499C937.696 322.183 937.357 323.61 936.679 324.78C936.002 325.951 935.088 326.844 933.938 327.46C932.788 328.076 931.495 328.384 930.057 328.384ZM930.273 326.444C931.464 326.444 932.521 326.197 933.445 325.704C934.369 325.191 935.098 324.493 935.632 323.61C936.166 322.707 936.433 321.67 936.433 320.499C936.433 319.329 936.166 318.302 935.632 317.419C935.098 316.536 934.369 315.848 933.445 315.356C932.521 314.842 931.464 314.586 930.273 314.586C929.102 314.586 928.045 314.842 927.1 315.356C926.176 315.848 925.447 316.536 924.914 317.419C924.4 318.302 924.144 319.329 924.144 320.499C924.144 321.67 924.4 322.707 924.914 323.61C925.447 324.493 926.176 325.191 927.1 325.704C928.045 326.197 929.102 326.444 930.273 326.444Z" fill="white"/>
<line x1="873" y1="781" x2="1002.03" y2="781" stroke="white" stroke-width="2" stroke-dasharray="8 8"/>
<circle cx="1007.04" cy="781" r="12" transform="rotate(90 1007.04 781)" fill="#ED1194"/>
<circle cx="832" cy="781" r="74" fill="#ED1194"/>
<circle cx="832" cy="781" r="62.9" fill="black"/>
<path d="M794.872 790.24C793.8 790.24 792.808 790.032 791.896 789.616C791 789.2 790.264 788.6 789.688 787.816L791.464 785.68C791.928 786.32 792.432 786.8 792.976 787.12C793.536 787.44 794.144 787.6 794.8 787.6C796.544 787.6 797.416 786.568 797.416 784.504V775.816H791.44V773.2H800.536V784.336C800.536 786.32 800.048 787.8 799.072 788.776C798.112 789.752 796.712 790.24 794.872 790.24ZM810.048 790.168C808.96 790.168 808 789.968 807.168 789.568C806.336 789.152 805.688 788.528 805.224 787.696C804.76 786.848 804.528 785.784 804.528 784.504V777.184H807.528V784.096C807.528 785.248 807.784 786.112 808.296 786.688C808.824 787.248 809.568 787.528 810.528 787.528C811.232 787.528 811.84 787.384 812.352 787.096C812.88 786.808 813.288 786.376 813.576 785.8C813.88 785.224 814.032 784.512 814.032 783.664V777.184H817.032V790H814.176V786.544L814.68 787.6C814.248 788.432 813.616 789.072 812.784 789.52C811.952 789.952 811.04 790.168 810.048 790.168ZM828.232 777.04C829.256 777.04 830.168 777.24 830.968 777.64C831.784 778.04 832.424 778.656 832.888 779.488C833.352 780.304 833.584 781.36 833.584 782.656V790H830.584V783.04C830.584 781.904 830.312 781.056 829.768 780.496C829.24 779.936 828.496 779.656 827.536 779.656C826.832 779.656 826.208 779.8 825.664 780.088C825.12 780.376 824.696 780.808 824.392 781.384C824.104 781.944 823.96 782.656 823.96 783.52V790H820.96V777.184H823.816V780.64L823.312 779.584C823.76 778.768 824.408 778.144 825.256 777.712C826.12 777.264 827.112 777.04 828.232 777.04ZM843.437 790.168C842.013 790.168 840.765 789.888 839.693 789.328C838.637 788.752 837.813 787.968 837.221 786.976C836.645 785.984 836.357 784.856 836.357 783.592C836.357 782.312 836.637 781.184 837.197 780.208C837.773 779.216 838.557 778.44 839.549 777.88C840.557 777.32 841.701 777.04 842.981 777.04C844.229 777.04 845.341 777.312 846.317 777.856C847.293 778.4 848.061 779.168 848.621 780.16C849.181 781.152 849.461 782.32 849.461 783.664C849.461 783.792 849.453 783.936 849.437 784.096C849.437 784.256 849.429 784.408 849.413 784.552H838.733V782.56H847.829L846.653 783.184C846.669 782.448 846.517 781.8 846.197 781.24C845.877 780.68 845.437 780.24 844.877 779.92C844.333 779.6 843.701 779.44 842.981 779.44C842.245 779.44 841.597 779.6 841.037 779.92C840.493 780.24 840.061 780.688 839.741 781.264C839.437 781.824 839.285 782.488 839.285 783.256V783.736C839.285 784.504 839.461 785.184 839.813 785.776C840.165 786.368 840.661 786.824 841.301 787.144C841.941 787.464 842.677 787.624 843.509 787.624C844.229 787.624 844.877 787.512 845.453 787.288C846.029 787.064 846.541 786.712 846.989 786.232L848.597 788.08C848.021 788.752 847.293 789.272 846.413 789.64C845.549 789.992 844.557 790.168 843.437 790.168ZM863.728 772.96C865.264 772.96 866.568 773.288 867.64 773.944C868.728 774.584 869.56 775.52 870.136 776.752C870.712 777.984 871 779.504 871 781.312C871 783.232 870.648 784.856 869.944 786.184C869.256 787.512 868.296 788.52 867.064 789.208C865.832 789.896 864.4 790.24 862.768 790.24C861.92 790.24 861.112 790.152 860.344 789.976C859.576 789.8 858.912 789.528 858.352 789.16L859.504 786.808C859.968 787.112 860.472 787.328 861.016 787.456C861.56 787.568 862.12 787.624 862.696 787.624C864.28 787.624 865.536 787.136 866.464 786.16C867.392 785.184 867.856 783.744 867.856 781.84C867.856 781.536 867.848 781.184 867.832 780.784C867.816 780.368 867.76 779.952 867.664 779.536L868.624 780.592C868.352 781.248 867.96 781.8 867.448 782.248C866.936 782.68 866.336 783.008 865.648 783.232C864.96 783.456 864.2 783.568 863.368 783.568C862.28 783.568 861.296 783.36 860.416 782.944C859.552 782.512 858.864 781.912 858.352 781.144C857.84 780.36 857.584 779.448 857.584 778.408C857.584 777.288 857.856 776.328 858.4 775.528C858.944 774.712 859.68 774.08 860.608 773.632C861.552 773.184 862.592 772.96 863.728 772.96ZM863.896 775.408C863.256 775.408 862.688 775.528 862.192 775.768C861.696 775.992 861.304 776.32 861.016 776.752C860.744 777.168 860.608 777.672 860.608 778.264C860.608 779.144 860.912 779.84 861.52 780.352C862.128 780.864 862.944 781.12 863.968 781.12C864.64 781.12 865.232 781 865.744 780.76C866.256 780.504 866.656 780.16 866.944 779.728C867.232 779.28 867.376 778.784 867.376 778.24C867.376 777.712 867.24 777.24 866.968 776.824C866.696 776.392 866.304 776.048 865.792 775.792C865.28 775.536 864.648 775.408 863.896 775.408Z" fill="#ED1194"/>
<path d="M1060.69 770.44H1062.94V792H1060.69V770.44ZM1047.2 792H1044.92V770.44H1047.2V792ZM1060.9 782.052H1046.95V780.05H1060.9V782.052ZM1078.84 792.154C1077.16 792.154 1075.68 791.805 1074.41 791.107C1073.13 790.388 1072.14 789.413 1071.42 788.181C1070.7 786.928 1070.34 785.501 1070.34 783.9C1070.34 782.298 1070.68 780.881 1071.36 779.649C1072.06 778.417 1073 777.452 1074.19 776.754C1075.4 776.035 1076.76 775.676 1078.26 775.676C1079.78 775.676 1081.12 776.025 1082.29 776.723C1083.48 777.401 1084.42 778.366 1085.1 779.618C1085.77 780.85 1086.11 782.277 1086.11 783.9C1086.11 784.002 1086.1 784.115 1086.08 784.238C1086.08 784.341 1086.08 784.454 1086.08 784.577H1072.01V782.945H1084.91L1084.05 783.592C1084.05 782.421 1083.79 781.384 1083.28 780.481C1082.79 779.557 1082.11 778.838 1081.25 778.325C1080.38 777.811 1079.39 777.555 1078.26 777.555C1077.15 777.555 1076.15 777.811 1075.27 778.325C1074.39 778.838 1073.7 779.557 1073.21 780.481C1072.71 781.405 1072.47 782.462 1072.47 783.653V783.992C1072.47 785.224 1072.73 786.312 1073.27 787.257C1073.82 788.181 1074.58 788.91 1075.55 789.444C1076.53 789.957 1077.65 790.214 1078.9 790.214C1079.89 790.214 1080.8 790.039 1081.65 789.69C1082.51 789.341 1083.25 788.807 1083.86 788.088L1085.1 789.505C1084.38 790.368 1083.47 791.025 1082.38 791.476C1081.32 791.928 1080.14 792.154 1078.84 792.154ZM1102.71 792V788.427L1102.62 787.842V781.867C1102.62 780.491 1102.23 779.434 1101.45 778.694C1100.69 777.955 1099.55 777.586 1098.03 777.586C1096.98 777.586 1095.98 777.76 1095.04 778.109C1094.09 778.458 1093.29 778.92 1092.64 779.495L1091.65 777.863C1092.47 777.165 1093.46 776.631 1094.61 776.261C1095.76 775.871 1096.97 775.676 1098.24 775.676C1100.34 775.676 1101.95 776.2 1103.08 777.247C1104.23 778.273 1104.8 779.844 1104.8 781.959V792H1102.71ZM1097.13 792.154C1095.92 792.154 1094.86 791.959 1093.96 791.569C1093.08 791.158 1092.4 790.604 1091.93 789.906C1091.46 789.187 1091.22 788.366 1091.22 787.442C1091.22 786.6 1091.42 785.84 1091.81 785.162C1092.22 784.464 1092.87 783.91 1093.78 783.499C1094.7 783.068 1095.93 782.852 1097.47 782.852H1103.05V784.485H1097.53C1095.97 784.485 1094.89 784.762 1094.27 785.316C1093.67 785.871 1093.38 786.559 1093.38 787.38C1093.38 788.304 1093.74 789.043 1094.45 789.598C1095.17 790.152 1096.18 790.429 1097.47 790.429C1098.7 790.429 1099.76 790.152 1100.65 789.598C1101.55 789.023 1102.21 788.201 1102.62 787.134L1103.11 788.643C1102.7 789.711 1101.98 790.563 1100.95 791.199C1099.95 791.836 1098.67 792.154 1097.13 792.154ZM1119.64 792.154C1118.1 792.154 1116.72 791.805 1115.49 791.107C1114.27 790.409 1113.32 789.444 1112.62 788.212C1111.92 786.959 1111.57 785.522 1111.57 783.9C1111.57 782.257 1111.92 780.82 1112.62 779.588C1113.32 778.356 1114.27 777.401 1115.49 776.723C1116.72 776.025 1118.1 775.676 1119.64 775.676C1121.06 775.676 1122.32 775.994 1123.43 776.631C1124.56 777.267 1125.45 778.202 1126.11 779.434C1126.79 780.645 1127.13 782.134 1127.13 783.9C1127.13 785.645 1126.8 787.134 1126.14 788.366C1125.49 789.598 1124.59 790.542 1123.46 791.199C1122.35 791.836 1121.08 792.154 1119.64 792.154ZM1119.8 790.214C1120.95 790.214 1121.97 789.957 1122.88 789.444C1123.8 788.91 1124.52 788.171 1125.03 787.226C1125.57 786.261 1125.83 785.152 1125.83 783.9C1125.83 782.627 1125.57 781.518 1125.03 780.573C1124.52 779.629 1123.8 778.9 1122.88 778.386C1121.97 777.853 1120.95 777.586 1119.8 777.586C1118.67 777.586 1117.65 777.853 1116.75 778.386C1115.85 778.9 1115.13 779.629 1114.59 780.573C1114.06 781.518 1113.79 782.627 1113.79 783.9C1113.79 785.152 1114.06 786.261 1114.59 787.226C1115.13 788.171 1115.85 788.91 1116.75 789.444C1117.65 789.957 1118.67 790.214 1119.8 790.214ZM1125.9 792V787.134L1126.11 783.869L1125.8 780.604V769.146H1127.99V792H1125.9ZM1136.54 792V775.83H1138.73V792H1136.54ZM1137.65 772.257C1137.2 772.257 1136.82 772.103 1136.51 771.795C1136.21 771.487 1136.05 771.118 1136.05 770.686C1136.05 770.255 1136.21 769.896 1136.51 769.608C1136.82 769.3 1137.2 769.146 1137.65 769.146C1138.11 769.146 1138.49 769.29 1138.79 769.578C1139.1 769.865 1139.26 770.224 1139.26 770.656C1139.26 771.107 1139.1 771.487 1138.79 771.795C1138.51 772.103 1138.13 772.257 1137.65 772.257ZM1155.53 775.676C1156.85 775.676 1158 775.933 1158.98 776.446C1159.99 776.939 1160.77 777.699 1161.33 778.725C1161.9 779.752 1162.19 781.045 1162.19 782.606V792H1160V782.822C1160 781.117 1159.57 779.834 1158.71 778.972C1157.87 778.089 1156.67 777.647 1155.13 777.647C1153.98 777.647 1152.98 777.883 1152.12 778.356C1151.27 778.807 1150.62 779.475 1150.14 780.358C1149.69 781.22 1149.47 782.267 1149.47 783.499V792H1147.28V775.83H1149.37V780.265L1149.04 779.434C1149.55 778.263 1150.37 777.349 1151.5 776.692C1152.63 776.015 1153.97 775.676 1155.53 775.676ZM1177.46 798.129C1175.98 798.129 1174.56 797.914 1173.21 797.482C1171.85 797.051 1170.75 796.435 1169.91 795.634L1171.02 793.971C1171.78 794.649 1172.71 795.183 1173.82 795.573C1174.95 795.983 1176.14 796.189 1177.4 796.189C1179.45 796.189 1180.96 795.706 1181.92 794.741C1182.89 793.797 1183.37 792.318 1183.37 790.306V786.271L1183.68 783.499L1183.46 780.727V775.83H1185.56V790.029C1185.56 792.821 1184.87 794.864 1183.49 796.158C1182.14 797.472 1180.13 798.129 1177.46 798.129ZM1177.06 791.384C1175.52 791.384 1174.13 791.055 1172.9 790.398C1171.67 789.721 1170.69 788.787 1169.97 787.596C1169.28 786.405 1168.93 785.039 1168.93 783.499C1168.93 781.959 1169.28 780.604 1169.97 779.434C1170.69 778.243 1171.67 777.319 1172.9 776.662C1174.13 776.005 1175.52 775.676 1177.06 775.676C1178.49 775.676 1179.79 775.974 1180.94 776.569C1182.09 777.165 1183 778.048 1183.68 779.218C1184.36 780.388 1184.7 781.815 1184.7 783.499C1184.7 785.183 1184.36 786.61 1183.68 787.78C1183 788.951 1182.09 789.844 1180.94 790.46C1179.79 791.076 1178.49 791.384 1177.06 791.384ZM1177.27 789.444C1178.46 789.444 1179.52 789.197 1180.45 788.704C1181.37 788.191 1182.1 787.493 1182.63 786.61C1183.17 785.707 1183.43 784.67 1183.43 783.499C1183.43 782.329 1183.17 781.302 1182.63 780.419C1182.1 779.536 1181.37 778.848 1180.45 778.356C1179.52 777.842 1178.46 777.586 1177.27 777.586C1176.1 777.586 1175.04 777.842 1174.1 778.356C1173.18 778.848 1172.45 779.536 1171.91 780.419C1171.4 781.302 1171.14 782.329 1171.14 783.499C1171.14 784.67 1171.4 785.707 1171.91 786.61C1172.45 787.493 1173.18 788.191 1174.1 788.704C1175.04 789.197 1176.1 789.444 1177.27 789.444Z" fill="white"/>
<line x1="1179" y1="1429" x2="1308.03" y2="1429" stroke="white" stroke-width="2" stroke-dasharray="8 8"/>
<circle cx="1313.04" cy="1429" r="12" transform="rotate(90 1313.04 1429)" fill="#F6D913"/>
<circle cx="1138" cy="1429" r="74" fill="#F6D913"/>
<circle cx="1138" cy="1429" r="62.9" fill="black"/>
<path d="M1100.87 1438.24C1099.8 1438.24 1098.81 1438.03 1097.9 1437.62C1097 1437.2 1096.26 1436.6 1095.69 1435.82L1097.46 1433.68C1097.93 1434.32 1098.43 1434.8 1098.98 1435.12C1099.54 1435.44 1100.14 1435.6 1100.8 1435.6C1102.54 1435.6 1103.42 1434.57 1103.42 1432.5V1423.82H1097.44V1421.2H1106.54V1432.34C1106.54 1434.32 1106.05 1435.8 1105.07 1436.78C1104.11 1437.75 1102.71 1438.24 1100.87 1438.24ZM1116.05 1438.17C1114.96 1438.17 1114 1437.97 1113.17 1437.57C1112.34 1437.15 1111.69 1436.53 1111.22 1435.7C1110.76 1434.85 1110.53 1433.78 1110.53 1432.5V1425.18H1113.53V1432.1C1113.53 1433.25 1113.78 1434.11 1114.3 1434.69C1114.82 1435.25 1115.57 1435.53 1116.53 1435.53C1117.23 1435.53 1117.84 1435.38 1118.35 1435.1C1118.88 1434.81 1119.29 1434.38 1119.58 1433.8C1119.88 1433.22 1120.03 1432.51 1120.03 1431.66V1425.18H1123.03V1438H1120.18V1434.54L1120.68 1435.6C1120.25 1436.43 1119.62 1437.07 1118.78 1437.52C1117.95 1437.95 1117.04 1438.17 1116.05 1438.17ZM1134.23 1425.04C1135.26 1425.04 1136.17 1425.24 1136.97 1425.64C1137.78 1426.04 1138.42 1426.66 1138.89 1427.49C1139.35 1428.3 1139.58 1429.36 1139.58 1430.66V1438H1136.58V1431.04C1136.58 1429.9 1136.31 1429.06 1135.77 1428.5C1135.24 1427.94 1134.5 1427.66 1133.54 1427.66C1132.83 1427.66 1132.21 1427.8 1131.66 1428.09C1131.12 1428.38 1130.7 1428.81 1130.39 1429.38C1130.1 1429.94 1129.96 1430.66 1129.96 1431.52V1438H1126.96V1425.18H1129.82V1428.64L1129.31 1427.58C1129.76 1426.77 1130.41 1426.14 1131.26 1425.71C1132.12 1425.26 1133.11 1425.04 1134.23 1425.04ZM1149.44 1438.17C1148.01 1438.17 1146.77 1437.89 1145.69 1437.33C1144.64 1436.75 1143.81 1435.97 1143.22 1434.98C1142.65 1433.98 1142.36 1432.86 1142.36 1431.59C1142.36 1430.31 1142.64 1429.18 1143.2 1428.21C1143.77 1427.22 1144.56 1426.44 1145.55 1425.88C1146.56 1425.32 1147.7 1425.04 1148.98 1425.04C1150.23 1425.04 1151.34 1425.31 1152.32 1425.86C1153.29 1426.4 1154.06 1427.17 1154.62 1428.16C1155.18 1429.15 1155.46 1430.32 1155.46 1431.66C1155.46 1431.79 1155.45 1431.94 1155.44 1432.1C1155.44 1432.26 1155.43 1432.41 1155.41 1432.55H1144.73V1430.56H1153.83L1152.65 1431.18C1152.67 1430.45 1152.52 1429.8 1152.2 1429.24C1151.88 1428.68 1151.44 1428.24 1150.88 1427.92C1150.33 1427.6 1149.7 1427.44 1148.98 1427.44C1148.25 1427.44 1147.6 1427.6 1147.04 1427.92C1146.49 1428.24 1146.06 1428.69 1145.74 1429.26C1145.44 1429.82 1145.29 1430.49 1145.29 1431.26V1431.74C1145.29 1432.5 1145.46 1433.18 1145.81 1433.78C1146.17 1434.37 1146.66 1434.82 1147.3 1435.14C1147.94 1435.46 1148.68 1435.62 1149.51 1435.62C1150.23 1435.62 1150.88 1435.51 1151.45 1435.29C1152.03 1435.06 1152.54 1434.71 1152.99 1434.23L1154.6 1436.08C1154.02 1436.75 1153.29 1437.27 1152.41 1437.64C1151.55 1437.99 1150.56 1438.17 1149.44 1438.17ZM1169.73 1420.96C1171.26 1420.96 1172.57 1421.29 1173.64 1421.94C1174.73 1422.58 1175.56 1423.52 1176.14 1424.75C1176.71 1425.98 1177 1427.5 1177 1429.31C1177 1431.23 1176.65 1432.86 1175.94 1434.18C1175.26 1435.51 1174.3 1436.52 1173.06 1437.21C1171.83 1437.9 1170.4 1438.24 1168.77 1438.24C1167.92 1438.24 1167.11 1438.15 1166.34 1437.98C1165.58 1437.8 1164.91 1437.53 1164.35 1437.16L1165.5 1434.81C1165.97 1435.11 1166.47 1435.33 1167.02 1435.46C1167.56 1435.57 1168.12 1435.62 1168.7 1435.62C1170.28 1435.62 1171.54 1435.14 1172.46 1434.16C1173.39 1433.18 1173.86 1431.74 1173.86 1429.84C1173.86 1429.54 1173.85 1429.18 1173.83 1428.78C1173.82 1428.37 1173.76 1427.95 1173.66 1427.54L1174.62 1428.59C1174.35 1429.25 1173.96 1429.8 1173.45 1430.25C1172.94 1430.68 1172.34 1431.01 1171.65 1431.23C1170.96 1431.46 1170.2 1431.57 1169.37 1431.57C1168.28 1431.57 1167.3 1431.36 1166.42 1430.94C1165.55 1430.51 1164.86 1429.91 1164.35 1429.14C1163.84 1428.36 1163.58 1427.45 1163.58 1426.41C1163.58 1425.29 1163.86 1424.33 1164.4 1423.53C1164.94 1422.71 1165.68 1422.08 1166.61 1421.63C1167.55 1421.18 1168.59 1420.96 1169.73 1420.96ZM1169.9 1423.41C1169.26 1423.41 1168.69 1423.53 1168.19 1423.77C1167.7 1423.99 1167.3 1424.32 1167.02 1424.75C1166.74 1425.17 1166.61 1425.67 1166.61 1426.26C1166.61 1427.14 1166.91 1427.84 1167.52 1428.35C1168.13 1428.86 1168.94 1429.12 1169.97 1429.12C1170.64 1429.12 1171.23 1429 1171.74 1428.76C1172.26 1428.5 1172.66 1428.16 1172.94 1427.73C1173.23 1427.28 1173.38 1426.78 1173.38 1426.24C1173.38 1425.71 1173.24 1425.24 1172.97 1424.82C1172.7 1424.39 1172.3 1424.05 1171.79 1423.79C1171.28 1423.54 1170.65 1423.41 1169.9 1423.41Z" fill="#F6D913"/>
<path d="M1366.69 1418.44H1368.94V1440H1366.69V1418.44ZM1353.2 1440H1350.92V1418.44H1353.2V1440ZM1366.9 1430.05H1352.95V1428.05H1366.9V1430.05ZM1384.84 1440.15C1383.16 1440.15 1381.68 1439.8 1380.41 1439.11C1379.13 1438.39 1378.14 1437.41 1377.42 1436.18C1376.7 1434.93 1376.34 1433.5 1376.34 1431.9C1376.34 1430.3 1376.68 1428.88 1377.36 1427.65C1378.06 1426.42 1379 1425.45 1380.19 1424.75C1381.4 1424.04 1382.76 1423.68 1384.26 1423.68C1385.78 1423.68 1387.12 1424.03 1388.29 1424.72C1389.48 1425.4 1390.42 1426.37 1391.1 1427.62C1391.77 1428.85 1392.11 1430.28 1392.11 1431.9C1392.11 1432 1392.1 1432.12 1392.08 1432.24C1392.08 1432.34 1392.08 1432.45 1392.08 1432.58H1378.01V1430.94H1390.91L1390.05 1431.59C1390.05 1430.42 1389.79 1429.38 1389.28 1428.48C1388.79 1427.56 1388.11 1426.84 1387.25 1426.32C1386.38 1425.81 1385.39 1425.55 1384.26 1425.55C1383.15 1425.55 1382.15 1425.81 1381.27 1426.32C1380.39 1426.84 1379.7 1427.56 1379.21 1428.48C1378.71 1429.4 1378.47 1430.46 1378.47 1431.65V1431.99C1378.47 1433.22 1378.73 1434.31 1379.27 1435.26C1379.82 1436.18 1380.58 1436.91 1381.55 1437.44C1382.53 1437.96 1383.65 1438.21 1384.9 1438.21C1385.89 1438.21 1386.8 1438.04 1387.65 1437.69C1388.51 1437.34 1389.25 1436.81 1389.86 1436.09L1391.1 1437.51C1390.38 1438.37 1389.47 1439.02 1388.38 1439.48C1387.32 1439.93 1386.14 1440.15 1384.84 1440.15ZM1408.71 1440V1436.43L1408.62 1435.84V1429.87C1408.62 1428.49 1408.23 1427.43 1407.45 1426.69C1406.69 1425.96 1405.55 1425.59 1404.03 1425.59C1402.98 1425.59 1401.98 1425.76 1401.04 1426.11C1400.09 1426.46 1399.29 1426.92 1398.64 1427.5L1397.65 1425.86C1398.47 1425.16 1399.46 1424.63 1400.61 1424.26C1401.76 1423.87 1402.97 1423.68 1404.24 1423.68C1406.34 1423.68 1407.95 1424.2 1409.08 1425.25C1410.23 1426.27 1410.8 1427.84 1410.8 1429.96V1440H1408.71ZM1403.13 1440.15C1401.92 1440.15 1400.86 1439.96 1399.96 1439.57C1399.08 1439.16 1398.4 1438.6 1397.93 1437.91C1397.46 1437.19 1397.22 1436.37 1397.22 1435.44C1397.22 1434.6 1397.42 1433.84 1397.81 1433.16C1398.22 1432.46 1398.87 1431.91 1399.78 1431.5C1400.7 1431.07 1401.93 1430.85 1403.47 1430.85H1409.05V1432.48H1403.53C1401.97 1432.48 1400.89 1432.76 1400.27 1433.32C1399.67 1433.87 1399.38 1434.56 1399.38 1435.38C1399.38 1436.3 1399.74 1437.04 1400.45 1437.6C1401.17 1438.15 1402.18 1438.43 1403.47 1438.43C1404.7 1438.43 1405.76 1438.15 1406.65 1437.6C1407.55 1437.02 1408.21 1436.2 1408.62 1435.13L1409.11 1436.64C1408.7 1437.71 1407.98 1438.56 1406.95 1439.2C1405.95 1439.84 1404.67 1440.15 1403.13 1440.15ZM1425.64 1440.15C1424.1 1440.15 1422.72 1439.8 1421.49 1439.11C1420.27 1438.41 1419.32 1437.44 1418.62 1436.21C1417.92 1434.96 1417.57 1433.52 1417.57 1431.9C1417.57 1430.26 1417.92 1428.82 1418.62 1427.59C1419.32 1426.36 1420.27 1425.4 1421.49 1424.72C1422.72 1424.03 1424.1 1423.68 1425.64 1423.68C1427.06 1423.68 1428.32 1423.99 1429.43 1424.63C1430.56 1425.27 1431.45 1426.2 1432.11 1427.43C1432.79 1428.65 1433.13 1430.13 1433.13 1431.9C1433.13 1433.64 1432.8 1435.13 1432.14 1436.37C1431.49 1437.6 1430.59 1438.54 1429.46 1439.2C1428.35 1439.84 1427.08 1440.15 1425.64 1440.15ZM1425.8 1438.21C1426.95 1438.21 1427.97 1437.96 1428.88 1437.44C1429.8 1436.91 1430.52 1436.17 1431.03 1435.23C1431.57 1434.26 1431.83 1433.15 1431.83 1431.9C1431.83 1430.63 1431.57 1429.52 1431.03 1428.57C1430.52 1427.63 1429.8 1426.9 1428.88 1426.39C1427.97 1425.85 1426.95 1425.59 1425.8 1425.59C1424.67 1425.59 1423.65 1425.85 1422.75 1426.39C1421.85 1426.9 1421.13 1427.63 1420.59 1428.57C1420.06 1429.52 1419.79 1430.63 1419.79 1431.9C1419.79 1433.15 1420.06 1434.26 1420.59 1435.23C1421.13 1436.17 1421.85 1436.91 1422.75 1437.44C1423.65 1437.96 1424.67 1438.21 1425.8 1438.21ZM1431.9 1440V1435.13L1432.11 1431.87L1431.8 1428.6V1417.15H1433.99V1440H1431.9ZM1442.54 1440V1423.83H1444.73V1440H1442.54ZM1443.65 1420.26C1443.2 1420.26 1442.82 1420.1 1442.51 1419.8C1442.21 1419.49 1442.05 1419.12 1442.05 1418.69C1442.05 1418.26 1442.21 1417.9 1442.51 1417.61C1442.82 1417.3 1443.2 1417.15 1443.65 1417.15C1444.11 1417.15 1444.49 1417.29 1444.79 1417.58C1445.1 1417.87 1445.26 1418.22 1445.26 1418.66C1445.26 1419.11 1445.1 1419.49 1444.79 1419.8C1444.51 1420.1 1444.13 1420.26 1443.65 1420.26ZM1461.53 1423.68C1462.85 1423.68 1464 1423.93 1464.98 1424.45C1465.99 1424.94 1466.77 1425.7 1467.33 1426.73C1467.9 1427.75 1468.19 1429.05 1468.19 1430.61V1440H1466V1430.82C1466 1429.12 1465.57 1427.83 1464.71 1426.97C1463.87 1426.09 1462.67 1425.65 1461.13 1425.65C1459.98 1425.65 1458.98 1425.88 1458.12 1426.36C1457.27 1426.81 1456.62 1427.47 1456.14 1428.36C1455.69 1429.22 1455.47 1430.27 1455.47 1431.5V1440H1453.28V1423.83H1455.37V1428.27L1455.04 1427.43C1455.55 1426.26 1456.37 1425.35 1457.5 1424.69C1458.63 1424.01 1459.97 1423.68 1461.53 1423.68ZM1483.46 1446.13C1481.98 1446.13 1480.56 1445.91 1479.21 1445.48C1477.85 1445.05 1476.75 1444.44 1475.91 1443.63L1477.02 1441.97C1477.78 1442.65 1478.71 1443.18 1479.82 1443.57C1480.95 1443.98 1482.14 1444.19 1483.4 1444.19C1485.45 1444.19 1486.96 1443.71 1487.92 1442.74C1488.89 1441.8 1489.37 1440.32 1489.37 1438.31V1434.27L1489.68 1431.5L1489.46 1428.73V1423.83H1491.56V1438.03C1491.56 1440.82 1490.87 1442.86 1489.49 1444.16C1488.14 1445.47 1486.13 1446.13 1483.46 1446.13ZM1483.06 1439.38C1481.52 1439.38 1480.13 1439.06 1478.9 1438.4C1477.67 1437.72 1476.69 1436.79 1475.97 1435.6C1475.28 1434.4 1474.93 1433.04 1474.93 1431.5C1474.93 1429.96 1475.28 1428.6 1475.97 1427.43C1476.69 1426.24 1477.67 1425.32 1478.9 1424.66C1480.13 1424 1481.52 1423.68 1483.06 1423.68C1484.49 1423.68 1485.79 1423.97 1486.94 1424.57C1488.09 1425.16 1489 1426.05 1489.68 1427.22C1490.36 1428.39 1490.7 1429.82 1490.7 1431.5C1490.7 1433.18 1490.36 1434.61 1489.68 1435.78C1489 1436.95 1488.09 1437.84 1486.94 1438.46C1485.79 1439.08 1484.49 1439.38 1483.06 1439.38ZM1483.27 1437.44C1484.46 1437.44 1485.52 1437.2 1486.45 1436.7C1487.37 1436.19 1488.1 1435.49 1488.63 1434.61C1489.17 1433.71 1489.43 1432.67 1489.43 1431.5C1489.43 1430.33 1489.17 1429.3 1488.63 1428.42C1488.1 1427.54 1487.37 1426.85 1486.45 1426.36C1485.52 1425.84 1484.46 1425.59 1483.27 1425.59C1482.1 1425.59 1481.04 1425.84 1480.1 1426.36C1479.18 1426.85 1478.45 1427.54 1477.91 1428.42C1477.4 1429.3 1477.14 1430.33 1477.14 1431.5C1477.14 1432.67 1477.4 1433.71 1477.91 1434.61C1478.45 1435.49 1479.18 1436.19 1480.1 1436.7C1481.04 1437.2 1482.1 1437.44 1483.27 1437.44Z" fill="white"/>
<line x1="441.035" y1="586" x2="312" y2="586" stroke="white" stroke-width="2" stroke-dasharray="8 8"/>
<circle cx="307" cy="586" r="12" transform="rotate(-90 307 586)" fill="#E1E3FF"/>
<circle cx="484" cy="586" r="74" fill="#E1E3FF"/>
<circle cx="484" cy="586" r="62.9" fill="black"/>
<path d="M446.872 595.24C445.8 595.24 444.808 595.032 443.896 594.616C443 594.2 442.264 593.6 441.688 592.816L443.464 590.68C443.928 591.32 444.432 591.8 444.976 592.12C445.536 592.44 446.144 592.6 446.8 592.6C448.544 592.6 449.416 591.568 449.416 589.504V580.816H443.44V578.2H452.536V589.336C452.536 591.32 452.048 592.8 451.072 593.776C450.112 594.752 448.712 595.24 446.872 595.24ZM462.048 595.168C460.96 595.168 460 594.968 459.168 594.568C458.336 594.152 457.688 593.528 457.224 592.696C456.76 591.848 456.528 590.784 456.528 589.504V582.184H459.528V589.096C459.528 590.248 459.784 591.112 460.296 591.688C460.824 592.248 461.568 592.528 462.528 592.528C463.232 592.528 463.84 592.384 464.352 592.096C464.88 591.808 465.288 591.376 465.576 590.8C465.88 590.224 466.032 589.512 466.032 588.664V582.184H469.032V595H466.176V591.544L466.68 592.6C466.248 593.432 465.616 594.072 464.784 594.52C463.952 594.952 463.04 595.168 462.048 595.168ZM480.232 582.04C481.256 582.04 482.168 582.24 482.968 582.64C483.784 583.04 484.424 583.656 484.888 584.488C485.352 585.304 485.584 586.36 485.584 587.656V595H482.584V588.04C482.584 586.904 482.312 586.056 481.768 585.496C481.24 584.936 480.496 584.656 479.536 584.656C478.832 584.656 478.208 584.8 477.664 585.088C477.12 585.376 476.696 585.808 476.392 586.384C476.104 586.944 475.96 587.656 475.96 588.52V595H472.96V582.184H475.816V585.64L475.312 584.584C475.76 583.768 476.408 583.144 477.256 582.712C478.12 582.264 479.112 582.04 480.232 582.04ZM495.437 595.168C494.013 595.168 492.765 594.888 491.693 594.328C490.637 593.752 489.813 592.968 489.221 591.976C488.645 590.984 488.357 589.856 488.357 588.592C488.357 587.312 488.637 586.184 489.197 585.208C489.773 584.216 490.557 583.44 491.549 582.88C492.557 582.32 493.701 582.04 494.981 582.04C496.229 582.04 497.341 582.312 498.317 582.856C499.293 583.4 500.061 584.168 500.621 585.16C501.181 586.152 501.461 587.32 501.461 588.664C501.461 588.792 501.453 588.936 501.437 589.096C501.437 589.256 501.429 589.408 501.413 589.552H490.733V587.56H499.829L498.653 588.184C498.669 587.448 498.517 586.8 498.197 586.24C497.877 585.68 497.437 585.24 496.877 584.92C496.333 584.6 495.701 584.44 494.981 584.44C494.245 584.44 493.597 584.6 493.037 584.92C492.493 585.24 492.061 585.688 491.741 586.264C491.437 586.824 491.285 587.488 491.285 588.256V588.736C491.285 589.504 491.461 590.184 491.813 590.776C492.165 591.368 492.661 591.824 493.301 592.144C493.941 592.464 494.677 592.624 495.509 592.624C496.229 592.624 496.877 592.512 497.453 592.288C498.029 592.064 498.541 591.712 498.989 591.232L500.597 593.08C500.021 593.752 499.293 594.272 498.413 594.64C497.549 594.992 496.557 595.168 495.437 595.168ZM515.728 577.96C517.264 577.96 518.568 578.288 519.64 578.944C520.728 579.584 521.56 580.52 522.136 581.752C522.712 582.984 523 584.504 523 586.312C523 588.232 522.648 589.856 521.944 591.184C521.256 592.512 520.296 593.52 519.064 594.208C517.832 594.896 516.4 595.24 514.768 595.24C513.92 595.24 513.112 595.152 512.344 594.976C511.576 594.8 510.912 594.528 510.352 594.16L511.504 591.808C511.968 592.112 512.472 592.328 513.016 592.456C513.56 592.568 514.12 592.624 514.696 592.624C516.28 592.624 517.536 592.136 518.464 591.16C519.392 590.184 519.856 588.744 519.856 586.84C519.856 586.536 519.848 586.184 519.832 585.784C519.816 585.368 519.76 584.952 519.664 584.536L520.624 585.592C520.352 586.248 519.96 586.8 519.448 587.248C518.936 587.68 518.336 588.008 517.648 588.232C516.96 588.456 516.2 588.568 515.368 588.568C514.28 588.568 513.296 588.36 512.416 587.944C511.552 587.512 510.864 586.912 510.352 586.144C509.84 585.36 509.584 584.448 509.584 583.408C509.584 582.288 509.856 581.328 510.4 580.528C510.944 579.712 511.68 579.08 512.608 578.632C513.552 578.184 514.592 577.96 515.728 577.96ZM515.896 580.408C515.256 580.408 514.688 580.528 514.192 580.768C513.696 580.992 513.304 581.32 513.016 581.752C512.744 582.168 512.608 582.672 512.608 583.264C512.608 584.144 512.912 584.84 513.52 585.352C514.128 585.864 514.944 586.12 515.968 586.12C516.64 586.12 517.232 586 517.744 585.76C518.256 585.504 518.656 585.16 518.944 584.728C519.232 584.28 519.376 583.784 519.376 583.24C519.376 582.712 519.24 582.24 518.968 581.824C518.696 581.392 518.304 581.048 517.792 580.792C517.28 580.536 516.648 580.408 515.896 580.408Z" fill="#E1E3FF"/>
<path d="M151.687 574.44H153.935V596H151.687V574.44ZM138.196 596H135.917V574.44H138.196V596ZM151.902 586.052H137.95V584.05H151.902V586.052ZM169.843 596.154C168.159 596.154 166.681 595.805 165.408 595.107C164.134 594.388 163.139 593.413 162.42 592.181C161.701 590.928 161.342 589.501 161.342 587.9C161.342 586.298 161.681 584.881 162.358 583.649C163.056 582.417 164.001 581.452 165.192 580.754C166.403 580.035 167.759 579.676 169.258 579.676C170.777 579.676 172.122 580.025 173.292 580.723C174.483 581.401 175.418 582.366 176.095 583.618C176.773 584.85 177.112 586.277 177.112 587.9C177.112 588.002 177.101 588.115 177.081 588.238C177.081 588.341 177.081 588.454 177.081 588.577H163.005V586.945H175.91L175.048 587.592C175.048 586.421 174.791 585.384 174.278 584.481C173.785 583.557 173.108 582.838 172.245 582.325C171.383 581.811 170.387 581.555 169.258 581.555C168.149 581.555 167.153 581.811 166.27 582.325C165.387 582.838 164.699 583.557 164.206 584.481C163.714 585.405 163.467 586.462 163.467 587.653V587.992C163.467 589.224 163.734 590.312 164.268 591.257C164.822 592.181 165.582 592.91 166.547 593.444C167.533 593.957 168.652 594.214 169.904 594.214C170.89 594.214 171.804 594.039 172.646 593.69C173.508 593.341 174.247 592.807 174.863 592.088L176.095 593.505C175.376 594.368 174.473 595.025 173.385 595.476C172.317 595.928 171.136 596.154 169.843 596.154ZM193.709 596V592.427L193.616 591.842V585.867C193.616 584.491 193.226 583.434 192.446 582.694C191.686 581.955 190.547 581.586 189.027 581.586C187.98 581.586 186.984 581.76 186.039 582.109C185.095 582.458 184.294 582.92 183.637 583.495L182.651 581.863C183.473 581.165 184.458 580.631 185.608 580.261C186.758 579.871 187.97 579.676 189.243 579.676C191.337 579.676 192.949 580.2 194.078 581.247C195.228 582.273 195.803 583.844 195.803 585.959V596H193.709ZM188.134 596.154C186.922 596.154 185.865 595.959 184.961 595.569C184.079 595.158 183.401 594.604 182.929 593.906C182.456 593.187 182.22 592.366 182.22 591.442C182.22 590.6 182.415 589.84 182.805 589.162C183.216 588.464 183.873 587.91 184.777 587.499C185.701 587.068 186.933 586.852 188.473 586.852H194.047V588.485H188.534C186.974 588.485 185.885 588.762 185.269 589.316C184.674 589.871 184.376 590.559 184.376 591.38C184.376 592.304 184.736 593.043 185.454 593.598C186.173 594.152 187.179 594.429 188.473 594.429C189.705 594.429 190.762 594.152 191.645 593.598C192.549 593.023 193.206 592.201 193.616 591.134L194.109 592.643C193.698 593.711 192.98 594.563 191.953 595.199C190.947 595.836 189.674 596.154 188.134 596.154ZM210.644 596.154C209.104 596.154 207.718 595.805 206.486 595.107C205.274 594.409 204.32 593.444 203.621 592.212C202.923 590.959 202.574 589.522 202.574 587.9C202.574 586.257 202.923 584.82 203.621 583.588C204.32 582.356 205.274 581.401 206.486 580.723C207.718 580.025 209.104 579.676 210.644 579.676C212.061 579.676 213.323 579.994 214.432 580.631C215.562 581.267 216.455 582.202 217.112 583.434C217.789 584.645 218.128 586.134 218.128 587.9C218.128 589.645 217.8 591.134 217.143 592.366C216.486 593.598 215.592 594.542 214.463 595.199C213.354 595.836 212.081 596.154 210.644 596.154ZM210.798 594.214C211.948 594.214 212.974 593.957 213.878 593.444C214.802 592.91 215.52 592.171 216.034 591.226C216.568 590.261 216.835 589.152 216.835 587.9C216.835 586.627 216.568 585.518 216.034 584.573C215.52 583.629 214.802 582.9 213.878 582.386C212.974 581.853 211.948 581.586 210.798 581.586C209.668 581.586 208.652 581.853 207.749 582.386C206.845 582.9 206.126 583.629 205.593 584.573C205.059 585.518 204.792 586.627 204.792 587.9C204.792 589.152 205.059 590.261 205.593 591.226C206.126 592.171 206.845 592.91 207.749 593.444C208.652 593.957 209.668 594.214 210.798 594.214ZM216.896 596V591.134L217.112 587.869L216.804 584.604V573.146H218.991V596H216.896ZM227.545 596V579.83H229.732V596H227.545ZM228.654 576.257C228.202 576.257 227.822 576.103 227.514 575.795C227.206 575.487 227.052 575.118 227.052 574.686C227.052 574.255 227.206 573.896 227.514 573.608C227.822 573.3 228.202 573.146 228.654 573.146C229.105 573.146 229.485 573.29 229.793 573.578C230.101 573.865 230.255 574.224 230.255 574.656C230.255 575.107 230.101 575.487 229.793 575.795C229.506 576.103 229.126 576.257 228.654 576.257ZM246.535 579.676C247.849 579.676 248.999 579.933 249.984 580.446C250.99 580.939 251.771 581.699 252.325 582.725C252.9 583.752 253.188 585.045 253.188 586.606V596H251.001V586.822C251.001 585.117 250.57 583.834 249.707 582.972C248.865 582.089 247.674 581.647 246.134 581.647C244.984 581.647 243.978 581.883 243.116 582.356C242.274 582.807 241.617 583.475 241.145 584.358C240.693 585.22 240.467 586.267 240.467 587.499V596H238.28V579.83H240.375V584.265L240.036 583.434C240.549 582.263 241.371 581.349 242.5 580.692C243.629 580.015 244.974 579.676 246.535 579.676ZM268.458 602.129C266.979 602.129 265.562 601.914 264.207 601.482C262.852 601.051 261.753 600.435 260.912 599.634L262.02 597.971C262.78 598.649 263.714 599.183 264.823 599.573C265.953 599.983 267.143 600.189 268.396 600.189C270.449 600.189 271.959 599.706 272.924 598.741C273.889 597.797 274.371 596.318 274.371 594.306V590.271L274.679 587.499L274.464 584.727V579.83H276.558V594.029C276.558 596.821 275.87 598.864 274.494 600.158C273.139 601.472 271.127 602.129 268.458 602.129ZM268.057 595.384C266.517 595.384 265.131 595.055 263.899 594.398C262.667 593.721 261.692 592.787 260.973 591.596C260.275 590.405 259.926 589.039 259.926 587.499C259.926 585.959 260.275 584.604 260.973 583.434C261.692 582.243 262.667 581.319 263.899 580.662C265.131 580.005 266.517 579.676 268.057 579.676C269.495 579.676 270.788 579.974 271.938 580.569C273.088 581.165 274.002 582.048 274.679 583.218C275.357 584.388 275.696 585.815 275.696 587.499C275.696 589.183 275.357 590.61 274.679 591.78C274.002 592.951 273.088 593.844 271.938 594.46C270.788 595.076 269.495 595.384 268.057 595.384ZM268.273 593.444C269.464 593.444 270.521 593.197 271.445 592.704C272.369 592.191 273.098 591.493 273.632 590.61C274.166 589.707 274.433 588.67 274.433 587.499C274.433 586.329 274.166 585.302 273.632 584.419C273.098 583.536 272.369 582.848 271.445 582.356C270.521 581.842 269.464 581.586 268.273 581.586C267.102 581.586 266.045 581.842 265.1 582.356C264.176 582.848 263.447 583.536 262.914 584.419C262.4 585.302 262.144 586.329 262.144 587.499C262.144 588.67 262.4 589.707 262.914 590.61C263.447 591.493 264.176 592.191 265.1 592.704C266.045 593.197 267.102 593.444 268.273 593.444Z" fill="white"/>
<line x1="331.035" y1="74" x2="202" y2="74" stroke="white" stroke-width="2" stroke-dasharray="8 8"/>
<circle cx="197" cy="74" r="12" transform="rotate(-90 197 74)" fill="#302AEE"/>
<circle cx="374" cy="74" r="74" fill="#302AEE"/>
<circle cx="374" cy="74.0001" r="62.9" fill="black"/>
<path d="M336.872 83.24C335.8 83.24 334.808 83.032 333.896 82.616C333 82.2 332.264 81.6 331.688 80.816L333.464 78.68C333.928 79.32 334.432 79.8 334.976 80.12C335.536 80.44 336.144 80.6 336.8 80.6C338.544 80.6 339.416 79.568 339.416 77.504V68.816H333.44V66.2H342.536V77.336C342.536 79.32 342.048 80.8 341.072 81.776C340.112 82.752 338.712 83.24 336.872 83.24ZM352.048 83.168C350.96 83.168 350 82.968 349.168 82.568C348.336 82.152 347.688 81.528 347.224 80.696C346.76 79.848 346.528 78.784 346.528 77.504V70.184H349.528V77.096C349.528 78.248 349.784 79.112 350.296 79.688C350.824 80.248 351.568 80.528 352.528 80.528C353.232 80.528 353.84 80.384 354.352 80.096C354.88 79.808 355.288 79.376 355.576 78.8C355.88 78.224 356.032 77.512 356.032 76.664V70.184H359.032V83H356.176V79.544L356.68 80.6C356.248 81.432 355.616 82.072 354.784 82.52C353.952 82.952 353.04 83.168 352.048 83.168ZM370.232 70.04C371.256 70.04 372.168 70.24 372.968 70.64C373.784 71.04 374.424 71.656 374.888 72.488C375.352 73.304 375.584 74.36 375.584 75.656V83H372.584V76.04C372.584 74.904 372.312 74.056 371.768 73.496C371.24 72.936 370.496 72.656 369.536 72.656C368.832 72.656 368.208 72.8 367.664 73.088C367.12 73.376 366.696 73.808 366.392 74.384C366.104 74.944 365.96 75.656 365.96 76.52V83H362.96V70.184H365.816V73.64L365.312 72.584C365.76 71.768 366.408 71.144 367.256 70.712C368.12 70.264 369.112 70.04 370.232 70.04ZM385.437 83.168C384.013 83.168 382.765 82.888 381.693 82.328C380.637 81.752 379.813 80.968 379.221 79.976C378.645 78.984 378.357 77.856 378.357 76.592C378.357 75.312 378.637 74.184 379.197 73.208C379.773 72.216 380.557 71.44 381.549 70.88C382.557 70.32 383.701 70.04 384.981 70.04C386.229 70.04 387.341 70.312 388.317 70.856C389.293 71.4 390.061 72.168 390.621 73.16C391.181 74.152 391.461 75.32 391.461 76.664C391.461 76.792 391.453 76.936 391.437 77.096C391.437 77.256 391.429 77.408 391.413 77.552H380.733V75.56H389.829L388.653 76.184C388.669 75.448 388.517 74.8 388.197 74.24C387.877 73.68 387.437 73.24 386.877 72.92C386.333 72.6 385.701 72.44 384.981 72.44C384.245 72.44 383.597 72.6 383.037 72.92C382.493 73.24 382.061 73.688 381.741 74.264C381.437 74.824 381.285 75.488 381.285 76.256V76.736C381.285 77.504 381.461 78.184 381.813 78.776C382.165 79.368 382.661 79.824 383.301 80.144C383.941 80.464 384.677 80.624 385.509 80.624C386.229 80.624 386.877 80.512 387.453 80.288C388.029 80.064 388.541 79.712 388.989 79.232L390.597 81.08C390.021 81.752 389.293 82.272 388.413 82.64C387.549 82.992 386.557 83.168 385.437 83.168ZM405.728 65.96C407.264 65.96 408.568 66.288 409.64 66.944C410.728 67.584 411.56 68.52 412.136 69.752C412.712 70.984 413 72.504 413 74.312C413 76.232 412.648 77.856 411.944 79.184C411.256 80.512 410.296 81.52 409.064 82.208C407.832 82.896 406.4 83.24 404.768 83.24C403.92 83.24 403.112 83.152 402.344 82.976C401.576 82.8 400.912 82.528 400.352 82.16L401.504 79.808C401.968 80.112 402.472 80.328 403.016 80.456C403.56 80.568 404.12 80.624 404.696 80.624C406.28 80.624 407.536 80.136 408.464 79.16C409.392 78.184 409.856 76.744 409.856 74.84C409.856 74.536 409.848 74.184 409.832 73.784C409.816 73.368 409.76 72.952 409.664 72.536L410.624 73.592C410.352 74.248 409.96 74.8 409.448 75.248C408.936 75.68 408.336 76.008 407.648 76.232C406.96 76.456 406.2 76.568 405.368 76.568C404.28 76.568 403.296 76.36 402.416 75.944C401.552 75.512 400.864 74.912 400.352 74.144C399.84 73.36 399.584 72.448 399.584 71.408C399.584 70.288 399.856 69.328 400.4 68.528C400.944 67.712 401.68 67.08 402.608 66.632C403.552 66.184 404.592 65.96 405.728 65.96ZM405.896 68.408C405.256 68.408 404.688 68.528 404.192 68.768C403.696 68.992 403.304 69.32 403.016 69.752C402.744 70.168 402.608 70.672 402.608 71.264C402.608 72.144 402.912 72.84 403.52 73.352C404.128 73.864 404.944 74.12 405.968 74.12C406.64 74.12 407.232 74 407.744 73.76C408.256 73.504 408.656 73.16 408.944 72.728C409.232 72.28 409.376 71.784 409.376 71.24C409.376 70.712 409.24 70.24 408.968 69.824C408.696 69.392 408.304 69.048 407.792 68.792C407.28 68.536 406.648 68.408 405.896 68.408Z" fill="#302AEE"/>
<path d="M41.6869 62.44H43.9353V84H41.6869V62.44ZM28.1965 84H25.9173V62.44H28.1965V84ZM41.9025 74.0516H27.9501V72.0496H41.9025V74.0516ZM59.8427 84.154C58.159 84.154 56.6806 83.8049 55.4075 83.1068C54.1345 82.3881 53.1386 81.4128 52.4199 80.1808C51.7013 78.9283 51.3419 77.5012 51.3419 75.8996C51.3419 74.298 51.6807 72.8812 52.3583 71.6492C53.0565 70.4172 54.001 69.4521 55.1919 68.754C56.4034 68.0353 57.7586 67.676 59.2575 67.676C60.777 67.676 62.1219 68.0251 63.2923 68.7232C64.4833 69.4008 65.4175 70.3659 66.0951 71.6184C66.7727 72.8504 67.1115 74.2775 67.1115 75.8996C67.1115 76.0023 67.1013 76.1152 67.0807 76.2384C67.0807 76.3411 67.0807 76.454 67.0807 76.5772H53.0051V74.9448H65.9103L65.0479 75.5916C65.0479 74.4212 64.7913 73.3843 64.2779 72.4808C63.7851 71.5568 63.1075 70.8381 62.2451 70.3248C61.3827 69.8115 60.3869 69.5548 59.2575 69.5548C58.1487 69.5548 57.1529 69.8115 56.2699 70.3248C55.387 70.8381 54.6991 71.5568 54.2063 72.4808C53.7135 73.4048 53.4671 74.4623 53.4671 75.6532V75.992C53.4671 77.224 53.7341 78.3123 54.2679 79.2568C54.8223 80.1808 55.5821 80.9097 56.5471 81.4436C57.5327 81.9569 58.6518 82.2136 59.9043 82.2136C60.8899 82.2136 61.8037 82.0391 62.6455 81.69C63.5079 81.3409 64.2471 80.8071 64.8631 80.0884L66.0951 81.5052C65.3765 82.3676 64.473 83.0247 63.3847 83.4764C62.317 83.9281 61.1363 84.154 59.8427 84.154ZM83.7086 84V80.4272L83.6162 79.842V73.8668C83.6162 72.4911 83.2261 71.4336 82.4458 70.6944C81.6861 69.9552 80.5465 69.5856 79.027 69.5856C77.9798 69.5856 76.984 69.7601 76.0394 70.1092C75.0949 70.4583 74.2941 70.9203 73.637 71.4952L72.6514 69.8628C73.4728 69.1647 74.4584 68.6308 75.6082 68.2612C76.7581 67.8711 77.9696 67.676 79.2426 67.676C81.337 67.676 82.9489 68.1996 84.0782 69.2468C85.2281 70.2735 85.803 71.8443 85.803 73.9592V84H83.7086ZM78.1338 84.154C76.9224 84.154 75.8649 83.9589 74.9614 83.5688C74.0785 83.1581 73.4009 82.6037 72.9286 81.9056C72.4564 81.1869 72.2202 80.3656 72.2202 79.4416C72.2202 78.5997 72.4153 77.84 72.8054 77.1624C73.2161 76.4643 73.8732 75.9099 74.7766 75.4992C75.7006 75.068 76.9326 74.8524 78.4726 74.8524H84.0474V76.4848H78.5342C76.9737 76.4848 75.8854 76.762 75.2694 77.3164C74.674 77.8708 74.3762 78.5587 74.3762 79.38C74.3762 80.304 74.7356 81.0432 75.4542 81.5976C76.1729 82.152 77.179 82.4292 78.4726 82.4292C79.7046 82.4292 80.7621 82.152 81.645 81.5976C82.5485 81.0227 83.2056 80.2013 83.6162 79.1336L84.109 80.6428C83.6984 81.7105 82.9797 82.5627 81.953 83.1992C80.9469 83.8357 79.6738 84.154 78.1338 84.154ZM100.644 84.154C99.1038 84.154 97.7178 83.8049 96.4858 83.1068C95.2744 82.4087 94.3196 81.4436 93.6214 80.2116C92.9233 78.9591 92.5742 77.5217 92.5742 75.8996C92.5742 74.2569 92.9233 72.8196 93.6214 71.5876C94.3196 70.3556 95.2744 69.4008 96.4858 68.7232C97.7178 68.0251 99.1038 67.676 100.644 67.676C102.061 67.676 103.323 67.9943 104.432 68.6308C105.562 69.2673 106.455 70.2016 107.112 71.4336C107.789 72.6451 108.128 74.1337 108.128 75.8996C108.128 77.6449 107.8 79.1336 107.143 80.3656C106.486 81.5976 105.592 82.5421 104.463 83.1992C103.354 83.8357 102.081 84.154 100.644 84.154ZM100.798 82.2136C101.948 82.2136 102.974 81.9569 103.878 81.4436C104.802 80.9097 105.52 80.1705 106.034 79.226C106.568 78.2609 106.835 77.1521 106.835 75.8996C106.835 74.6265 106.568 73.5177 106.034 72.5732C105.52 71.6287 104.802 70.8997 103.878 70.3864C102.974 69.8525 101.948 69.5856 100.798 69.5856C99.6685 69.5856 98.6521 69.8525 97.7486 70.3864C96.8452 70.8997 96.1265 71.6287 95.5926 72.5732C95.0588 73.5177 94.7918 74.6265 94.7918 75.8996C94.7918 77.1521 95.0588 78.2609 95.5926 79.226C96.1265 80.1705 96.8452 80.9097 97.7486 81.4436C98.6521 81.9569 99.6685 82.2136 100.798 82.2136ZM106.896 84V79.1336L107.112 75.8688L106.804 72.604V61.1464H108.991V84H106.896ZM117.545 84V67.83H119.732V84H117.545ZM118.654 64.2572C118.202 64.2572 117.822 64.1032 117.514 63.7952C117.206 63.4872 117.052 63.1176 117.052 62.6864C117.052 62.2552 117.206 61.8959 117.514 61.6084C117.822 61.3004 118.202 61.1464 118.654 61.1464C119.105 61.1464 119.485 61.2901 119.793 61.5776C120.101 61.8651 120.255 62.2244 120.255 62.6556C120.255 63.1073 120.101 63.4872 119.793 63.7952C119.506 64.1032 119.126 64.2572 118.654 64.2572ZM136.535 67.676C137.849 67.676 138.999 67.9327 139.984 68.446C140.99 68.9388 141.771 69.6985 142.325 70.7252C142.9 71.7519 143.188 73.0455 143.188 74.606V84H141.001V74.8216C141.001 73.1173 140.57 71.834 139.707 70.9716C138.865 70.0887 137.674 69.6472 136.134 69.6472C134.984 69.6472 133.978 69.8833 133.116 70.3556C132.274 70.8073 131.617 71.4747 131.145 72.3576C130.693 73.22 130.467 74.2672 130.467 75.4992V84H128.28V67.83H130.375V72.2652L130.036 71.4336C130.549 70.2632 131.371 69.3495 132.5 68.6924C133.629 68.0148 134.974 67.676 136.535 67.676ZM158.458 90.1292C156.979 90.1292 155.562 89.9136 154.207 89.4824C152.852 89.0512 151.753 88.4352 150.912 87.6344L152.02 85.9712C152.78 86.6488 153.714 87.1827 154.823 87.5728C155.953 87.9835 157.143 88.1888 158.396 88.1888C160.449 88.1888 161.959 87.7063 162.924 86.7412C163.889 85.7967 164.371 84.3183 164.371 82.306V78.2712L164.679 75.4992L164.464 72.7272V67.83H166.558V82.0288C166.558 84.8213 165.87 86.8644 164.494 88.158C163.139 89.4721 161.127 90.1292 158.458 90.1292ZM158.057 83.384C156.517 83.384 155.131 83.0555 153.899 82.3984C152.667 81.7208 151.692 80.7865 150.973 79.5956C150.275 78.4047 149.926 77.0392 149.926 75.4992C149.926 73.9592 150.275 72.604 150.973 71.4336C151.692 70.2427 152.667 69.3187 153.899 68.6616C155.131 68.0045 156.517 67.676 158.057 67.676C159.495 67.676 160.788 67.9737 161.938 68.5692C163.088 69.1647 164.002 70.0476 164.679 71.218C165.357 72.3884 165.696 73.8155 165.696 75.4992C165.696 77.1829 165.357 78.61 164.679 79.7804C164.002 80.9508 163.088 81.844 161.938 82.46C160.788 83.076 159.495 83.384 158.057 83.384ZM158.273 81.4436C159.464 81.4436 160.521 81.1972 161.445 80.7044C162.369 80.1911 163.098 79.4929 163.632 78.61C164.166 77.7065 164.433 76.6696 164.433 75.4992C164.433 74.3288 164.166 73.3021 163.632 72.4192C163.098 71.5363 162.369 70.8484 161.445 70.3556C160.521 69.8423 159.464 69.5856 158.273 69.5856C157.102 69.5856 156.045 69.8423 155.1 70.3556C154.176 70.8484 153.447 71.5363 152.914 72.4192C152.4 73.3021 152.144 74.3288 152.144 75.4992C152.144 76.6696 152.4 77.7065 152.914 78.61C153.447 79.4929 154.176 80.1911 155.1 80.7044C156.045 81.1972 157.102 81.4436 158.273 81.4436Z" fill="white"/>
<line x1="720.035" y1="1127" x2="591" y2="1127" stroke="white" stroke-width="2" stroke-dasharray="8 8"/>
<circle cx="586" cy="1127" r="12" transform="rotate(-90 586 1127)" fill="#FCE8FA"/>
<circle cx="763" cy="1127" r="74" fill="#FCE8FA"/>
<circle cx="763" cy="1127" r="62.9" fill="black"/>
<path d="M725.872 1136.24C724.8 1136.24 723.808 1136.03 722.896 1135.62C722 1135.2 721.264 1134.6 720.688 1133.82L722.464 1131.68C722.928 1132.32 723.432 1132.8 723.976 1133.12C724.536 1133.44 725.144 1133.6 725.8 1133.6C727.544 1133.6 728.416 1132.57 728.416 1130.5V1121.82H722.44V1119.2H731.536V1130.34C731.536 1132.32 731.048 1133.8 730.072 1134.78C729.112 1135.75 727.712 1136.24 725.872 1136.24ZM741.048 1136.17C739.96 1136.17 739 1135.97 738.168 1135.57C737.336 1135.15 736.688 1134.53 736.224 1133.7C735.76 1132.85 735.528 1131.78 735.528 1130.5V1123.18H738.528V1130.1C738.528 1131.25 738.784 1132.11 739.296 1132.69C739.824 1133.25 740.568 1133.53 741.528 1133.53C742.232 1133.53 742.84 1133.38 743.352 1133.1C743.88 1132.81 744.288 1132.38 744.576 1131.8C744.88 1131.22 745.032 1130.51 745.032 1129.66V1123.18H748.032V1136H745.176V1132.54L745.68 1133.6C745.248 1134.43 744.616 1135.07 743.784 1135.52C742.952 1135.95 742.04 1136.17 741.048 1136.17ZM759.232 1123.04C760.256 1123.04 761.168 1123.24 761.968 1123.64C762.784 1124.04 763.424 1124.66 763.888 1125.49C764.352 1126.3 764.584 1127.36 764.584 1128.66V1136H761.584V1129.04C761.584 1127.9 761.312 1127.06 760.768 1126.5C760.24 1125.94 759.496 1125.66 758.536 1125.66C757.832 1125.66 757.208 1125.8 756.664 1126.09C756.12 1126.38 755.696 1126.81 755.392 1127.38C755.104 1127.94 754.96 1128.66 754.96 1129.52V1136H751.96V1123.18H754.816V1126.64L754.312 1125.58C754.76 1124.77 755.408 1124.14 756.256 1123.71C757.12 1123.26 758.112 1123.04 759.232 1123.04ZM774.437 1136.17C773.013 1136.17 771.765 1135.89 770.693 1135.33C769.637 1134.75 768.813 1133.97 768.221 1132.98C767.645 1131.98 767.357 1130.86 767.357 1129.59C767.357 1128.31 767.637 1127.18 768.197 1126.21C768.773 1125.22 769.557 1124.44 770.549 1123.88C771.557 1123.32 772.701 1123.04 773.981 1123.04C775.229 1123.04 776.341 1123.31 777.317 1123.86C778.293 1124.4 779.061 1125.17 779.621 1126.16C780.181 1127.15 780.461 1128.32 780.461 1129.66C780.461 1129.79 780.453 1129.94 780.437 1130.1C780.437 1130.26 780.429 1130.41 780.413 1130.55H769.733V1128.56H778.829L777.653 1129.18C777.669 1128.45 777.517 1127.8 777.197 1127.24C776.877 1126.68 776.437 1126.24 775.877 1125.92C775.333 1125.6 774.701 1125.44 773.981 1125.44C773.245 1125.44 772.597 1125.6 772.037 1125.92C771.493 1126.24 771.061 1126.69 770.741 1127.26C770.437 1127.82 770.285 1128.49 770.285 1129.26V1129.74C770.285 1130.5 770.461 1131.18 770.813 1131.78C771.165 1132.37 771.661 1132.82 772.301 1133.14C772.941 1133.46 773.677 1133.62 774.509 1133.62C775.229 1133.62 775.877 1133.51 776.453 1133.29C777.029 1133.06 777.541 1132.71 777.989 1132.23L779.597 1134.08C779.021 1134.75 778.293 1135.27 777.413 1135.64C776.549 1135.99 775.557 1136.17 774.437 1136.17ZM794.728 1118.96C796.264 1118.96 797.568 1119.29 798.64 1119.94C799.728 1120.58 800.56 1121.52 801.136 1122.75C801.712 1123.98 802 1125.5 802 1127.31C802 1129.23 801.648 1130.86 800.944 1132.18C800.256 1133.51 799.296 1134.52 798.064 1135.21C796.832 1135.9 795.4 1136.24 793.768 1136.24C792.92 1136.24 792.112 1136.15 791.344 1135.98C790.576 1135.8 789.912 1135.53 789.352 1135.16L790.504 1132.81C790.968 1133.11 791.472 1133.33 792.016 1133.46C792.56 1133.57 793.12 1133.62 793.696 1133.62C795.28 1133.62 796.536 1133.14 797.464 1132.16C798.392 1131.18 798.856 1129.74 798.856 1127.84C798.856 1127.54 798.848 1127.18 798.832 1126.78C798.816 1126.37 798.76 1125.95 798.664 1125.54L799.624 1126.59C799.352 1127.25 798.96 1127.8 798.448 1128.25C797.936 1128.68 797.336 1129.01 796.648 1129.23C795.96 1129.46 795.2 1129.57 794.368 1129.57C793.28 1129.57 792.296 1129.36 791.416 1128.94C790.552 1128.51 789.864 1127.91 789.352 1127.14C788.84 1126.36 788.584 1125.45 788.584 1124.41C788.584 1123.29 788.856 1122.33 789.4 1121.53C789.944 1120.71 790.68 1120.08 791.608 1119.63C792.552 1119.18 793.592 1118.96 794.728 1118.96ZM794.896 1121.41C794.256 1121.41 793.688 1121.53 793.192 1121.77C792.696 1121.99 792.304 1122.32 792.016 1122.75C791.744 1123.17 791.608 1123.67 791.608 1124.26C791.608 1125.14 791.912 1125.84 792.52 1126.35C793.128 1126.86 793.944 1127.12 794.968 1127.12C795.64 1127.12 796.232 1127 796.744 1126.76C797.256 1126.5 797.656 1126.16 797.944 1125.73C798.232 1125.28 798.376 1124.78 798.376 1124.24C798.376 1123.71 798.24 1123.24 797.968 1122.82C797.696 1122.39 797.304 1122.05 796.792 1121.79C796.28 1121.54 795.648 1121.41 794.896 1121.41Z" fill="#FCE8FA"/>
<path d="M430.687 1115.44H432.935V1137H430.687V1115.44ZM417.196 1137H414.917V1115.44H417.196V1137ZM430.902 1127.05H416.95V1125.05H430.902V1127.05ZM448.843 1137.15C447.159 1137.15 445.681 1136.8 444.408 1136.11C443.134 1135.39 442.139 1134.41 441.42 1133.18C440.701 1131.93 440.342 1130.5 440.342 1128.9C440.342 1127.3 440.681 1125.88 441.358 1124.65C442.056 1123.42 443.001 1122.45 444.192 1121.75C445.403 1121.04 446.759 1120.68 448.258 1120.68C449.777 1120.68 451.122 1121.03 452.292 1121.72C453.483 1122.4 454.418 1123.37 455.095 1124.62C455.773 1125.85 456.112 1127.28 456.112 1128.9C456.112 1129 456.101 1129.12 456.081 1129.24C456.081 1129.34 456.081 1129.45 456.081 1129.58H442.005V1127.94H454.91L454.048 1128.59C454.048 1127.42 453.791 1126.38 453.278 1125.48C452.785 1124.56 452.108 1123.84 451.245 1123.32C450.383 1122.81 449.387 1122.55 448.258 1122.55C447.149 1122.55 446.153 1122.81 445.27 1123.32C444.387 1123.84 443.699 1124.56 443.206 1125.48C442.714 1126.4 442.467 1127.46 442.467 1128.65V1128.99C442.467 1130.22 442.734 1131.31 443.268 1132.26C443.822 1133.18 444.582 1133.91 445.547 1134.44C446.533 1134.96 447.652 1135.21 448.904 1135.21C449.89 1135.21 450.804 1135.04 451.646 1134.69C452.508 1134.34 453.247 1133.81 453.863 1133.09L455.095 1134.51C454.376 1135.37 453.473 1136.02 452.385 1136.48C451.317 1136.93 450.136 1137.15 448.843 1137.15ZM472.709 1137V1133.43L472.616 1132.84V1126.87C472.616 1125.49 472.226 1124.43 471.446 1123.69C470.686 1122.96 469.547 1122.59 468.027 1122.59C466.98 1122.59 465.984 1122.76 465.039 1123.11C464.095 1123.46 463.294 1123.92 462.637 1124.5L461.651 1122.86C462.473 1122.16 463.458 1121.63 464.608 1121.26C465.758 1120.87 466.97 1120.68 468.243 1120.68C470.337 1120.68 471.949 1121.2 473.078 1122.25C474.228 1123.27 474.803 1124.84 474.803 1126.96V1137H472.709ZM467.134 1137.15C465.922 1137.15 464.865 1136.96 463.961 1136.57C463.079 1136.16 462.401 1135.6 461.929 1134.91C461.456 1134.19 461.22 1133.37 461.22 1132.44C461.22 1131.6 461.415 1130.84 461.805 1130.16C462.216 1129.46 462.873 1128.91 463.777 1128.5C464.701 1128.07 465.933 1127.85 467.473 1127.85H473.047V1129.48H467.534C465.974 1129.48 464.885 1129.76 464.269 1130.32C463.674 1130.87 463.376 1131.56 463.376 1132.38C463.376 1133.3 463.736 1134.04 464.454 1134.6C465.173 1135.15 466.179 1135.43 467.473 1135.43C468.705 1135.43 469.762 1135.15 470.645 1134.6C471.549 1134.02 472.206 1133.2 472.616 1132.13L473.109 1133.64C472.698 1134.71 471.98 1135.56 470.953 1136.2C469.947 1136.84 468.674 1137.15 467.134 1137.15ZM489.644 1137.15C488.104 1137.15 486.718 1136.8 485.486 1136.11C484.274 1135.41 483.32 1134.44 482.621 1133.21C481.923 1131.96 481.574 1130.52 481.574 1128.9C481.574 1127.26 481.923 1125.82 482.621 1124.59C483.32 1123.36 484.274 1122.4 485.486 1121.72C486.718 1121.03 488.104 1120.68 489.644 1120.68C491.061 1120.68 492.323 1120.99 493.432 1121.63C494.562 1122.27 495.455 1123.2 496.112 1124.43C496.789 1125.65 497.128 1127.13 497.128 1128.9C497.128 1130.64 496.8 1132.13 496.143 1133.37C495.486 1134.6 494.592 1135.54 493.463 1136.2C492.354 1136.84 491.081 1137.15 489.644 1137.15ZM489.798 1135.21C490.948 1135.21 491.974 1134.96 492.878 1134.44C493.802 1133.91 494.52 1133.17 495.034 1132.23C495.568 1131.26 495.835 1130.15 495.835 1128.9C495.835 1127.63 495.568 1126.52 495.034 1125.57C494.52 1124.63 493.802 1123.9 492.878 1123.39C491.974 1122.85 490.948 1122.59 489.798 1122.59C488.668 1122.59 487.652 1122.85 486.749 1123.39C485.845 1123.9 485.126 1124.63 484.593 1125.57C484.059 1126.52 483.792 1127.63 483.792 1128.9C483.792 1130.15 484.059 1131.26 484.593 1132.23C485.126 1133.17 485.845 1133.91 486.749 1134.44C487.652 1134.96 488.668 1135.21 489.798 1135.21ZM495.896 1137V1132.13L496.112 1128.87L495.804 1125.6V1114.15H497.991V1137H495.896ZM506.545 1137V1120.83H508.732V1137H506.545ZM507.654 1117.26C507.202 1117.26 506.822 1117.1 506.514 1116.8C506.206 1116.49 506.052 1116.12 506.052 1115.69C506.052 1115.26 506.206 1114.9 506.514 1114.61C506.822 1114.3 507.202 1114.15 507.654 1114.15C508.105 1114.15 508.485 1114.29 508.793 1114.58C509.101 1114.87 509.255 1115.22 509.255 1115.66C509.255 1116.11 509.101 1116.49 508.793 1116.8C508.506 1117.1 508.126 1117.26 507.654 1117.26ZM525.535 1120.68C526.849 1120.68 527.999 1120.93 528.984 1121.45C529.99 1121.94 530.771 1122.7 531.325 1123.73C531.9 1124.75 532.188 1126.05 532.188 1127.61V1137H530.001V1127.82C530.001 1126.12 529.57 1124.83 528.707 1123.97C527.865 1123.09 526.674 1122.65 525.134 1122.65C523.984 1122.65 522.978 1122.88 522.116 1123.36C521.274 1123.81 520.617 1124.47 520.145 1125.36C519.693 1126.22 519.467 1127.27 519.467 1128.5V1137H517.28V1120.83H519.375V1125.27L519.036 1124.43C519.549 1123.26 520.371 1122.35 521.5 1121.69C522.629 1121.01 523.974 1120.68 525.535 1120.68ZM547.458 1143.13C545.979 1143.13 544.562 1142.91 543.207 1142.48C541.852 1142.05 540.753 1141.44 539.912 1140.63L541.02 1138.97C541.78 1139.65 542.714 1140.18 543.823 1140.57C544.953 1140.98 546.143 1141.19 547.396 1141.19C549.449 1141.19 550.959 1140.71 551.924 1139.74C552.889 1138.8 553.371 1137.32 553.371 1135.31V1131.27L553.679 1128.5L553.464 1125.73V1120.83H555.558V1135.03C555.558 1137.82 554.87 1139.86 553.494 1141.16C552.139 1142.47 550.127 1143.13 547.458 1143.13ZM547.057 1136.38C545.517 1136.38 544.131 1136.06 542.899 1135.4C541.667 1134.72 540.692 1133.79 539.973 1132.6C539.275 1131.4 538.926 1130.04 538.926 1128.5C538.926 1126.96 539.275 1125.6 539.973 1124.43C540.692 1123.24 541.667 1122.32 542.899 1121.66C544.131 1121 545.517 1120.68 547.057 1120.68C548.495 1120.68 549.788 1120.97 550.938 1121.57C552.088 1122.16 553.002 1123.05 553.679 1124.22C554.357 1125.39 554.696 1126.82 554.696 1128.5C554.696 1130.18 554.357 1131.61 553.679 1132.78C553.002 1133.95 552.088 1134.84 550.938 1135.46C549.788 1136.08 548.495 1136.38 547.057 1136.38ZM547.273 1134.44C548.464 1134.44 549.521 1134.2 550.445 1133.7C551.369 1133.19 552.098 1132.49 552.632 1131.61C553.166 1130.71 553.433 1129.67 553.433 1128.5C553.433 1127.33 553.166 1126.3 552.632 1125.42C552.098 1124.54 551.369 1123.85 550.445 1123.36C549.521 1122.84 548.464 1122.59 547.273 1122.59C546.102 1122.59 545.045 1122.84 544.1 1123.36C543.176 1123.85 542.447 1124.54 541.914 1125.42C541.4 1126.3 541.144 1127.33 541.144 1128.5C541.144 1129.67 541.4 1130.71 541.914 1131.61C542.447 1132.49 543.176 1133.19 544.1 1133.7C545.045 1134.2 546.102 1134.44 547.273 1134.44Z" fill="white"/>
</svg>
